 <svg  version="1.0" xmlns="http://www.w3.org/2000/svg"  width="300.000000pt" height="320.000000pt" viewBox="0 0 300.000000 320.000000"  preserveAspectRatio="xMidYMid meet">  <g transform="translate(0.000000,320.000000) scale(0.100000,-0.100000)" fill="#ffd700" stroke="none"> <path d="M200 1638 l0 -1218 295 0 295 0 2 890 3 889 71 -167 c39 -92 165 -386 280 -655 l208 -487 200 2 199 3 34 80 c73 169 511 1201 516 1215 3 8 6 -387 6 -877 l1 -893 295 0 295 0 0 1218 0 1217 -397 -2 -397 -3 -88 -207 c-49 -115 -95 -221 -102 -238 -35 -76 -341 -794 -352 -825 l-12 -35 -10 25 c-5 14 -112 266 -237 560 -125 294 -245 576 -266 625 l-38 90 -400 5 -401 5 0 -1217z m852 1022 c38 -91 82 -194 98 -230 15 -36 87 -204 159 -375 72 -170 136 -318 141 -327 6 -10 10 -29 10 -43 0 -15 4 -23 10 -20 5 3 23 -24 39 -60 32 -70 54 -82 66 -37 7 25 8 26 16 7 7 -15 7 -11 3 13 -3 18 -1 32 4 32 5 0 13 12 17 28 3 15 20 59 37 97 31 72 48 110 72 168 7 17 21 48 29 67 47 106 157 373 157 381 0 5 4 9 9 9 5 0 12 12 15 26 8 32 118 290 154 362 15 30 35 58 45 63 11 6 154 7 376 3 l359 -7 4 -1176 c2 -647 0 -1180 -5 -1186 -5 -6 -111 -11 -272 -12 l-265 -3 -2 883 c-3 745 -5 882 -17 882 -15 0 -25 -14 -42 -60 -10 -28 -12 -29 -20 -10 -7 16 -8 14 -4 -8 3 -16 2 -34 -3 -40 -5 -7 -19 -38 -31 -70 -28 -77 -50 -119 -59 -113 -4 2 -9 -7 -10 -20 -1 -14 -13 -48 -26 -77 -37 -82 -53 -120 -221 -513 l-158 -372 -60 -6 c-33 -3 -117 -6 -187 -6 l-127 0 -30 72 c-17 40 -34 84 -38 98 -4 14 -11 27 -14 30 -7 5 -69 149 -128 295 -15 39 -31 72 -35 73 -5 2 -8 8 -8 14 0 10 -109 275 -150 363 -10 22 -46 105 -79 185 -75 177 -76 179 -93 162 -10 -10 -14 -189 -17 -881 l-3 -868 -84 -7 c-47 -4 -169 -6 -272 -5 l-187 2 -5 1171 c-3 744 -1 1179 5 1192 9 22 11 22 383 20 l375 -1 69 -165z"/> <path d="M2071 2684 c0 -11 3 -14 6 -6 3 7 2 16 -1 19 -3 4 -6 -2 -5 -13z"/> <path d="M1991 2494 c0 -11 3 -14 6 -6 3 7 2 16 -1 19 -3 4 -6 -2 -5 -13z"/> <path d="M1971 2444 c0 -11 3 -14 6 -6 3 7 2 16 -1 19 -3 4 -6 -2 -5 -13z"/> <path d="M1911 2304 c0 -11 3 -14 6 -6 3 7 2 16 -1 19 -3 4 -6 -2 -5 -13z"/> <path d="M2352 2160 c0 -14 2 -19 5 -12 2 6 2 18 0 25 -3 6 -5 1 -5 -13z"/> <path d="M2352 2060 c0 -19 2 -27 5 -17 2 9 2 25 0 35 -3 9 -5 1 -5 -18z"/> <path d="M2391 2054 c0 -11 3 -14 6 -6 3 7 2 16 -1 19 -3 4 -6 -2 -5 -13z"/> <path d="M931 1964 c0 -11 3 -14 6 -6 3 7 2 16 -1 19 -3 4 -6 -2 -5 -13z"/> <path d="M1671 1744 c0 -11 3 -14 6 -6 3 7 2 16 -1 19 -3 4 -6 -2 -5 -13z"/> <path d="M2355 1220 c0 -300 1 -422 2 -272 2 149 2 395 0 545 -1 149 -2 27 -2 -273z"/> <path d="M1271 1264 c0 -11 3 -14 6 -6 3 7 2 16 -1 19 -3 4 -6 -2 -5 -13z"/> <path d="M1271 1164 c0 -11 3 -14 6 -6 3 7 2 16 -1 19 -3 4 -6 -2 -5 -13z"/> <path d="M1331 1034 c0 -11 3 -14 6 -6 3 7 2 16 -1 19 -3 4 -6 -2 -5 -13z"/> <path d="M1365 940 c-3 -5 1 -10 10 -10 9 0 13 5 10 10 -3 6 -8 10 -10 10 -2 0 -7 -4 -10 -10z"/> <path d="M1483 933 c26 -2 68 -2 95 0 26 2 4 3 -48 3 -52 0 -74 -1 -47 -3z"/> <path d="M80 1585 l0 -1215 300 0 c293 0 300 0 300 20 0 22 -10 26 -26 10 -7 -7 -103 -10 -277 -8 l-267 3 -1 1180 c0 649 0 1186 0 1194 1 9 10 12 31 9 18 -3 35 1 41 9 9 10 1 13 -45 13 l-56 0 0 -1215z"/> <path d="M1832 2446 c-83 -194 -152 -360 -154 -367 -2 -8 -5 -16 -8 -19 -3 -3 -41 -88 -83 -188 -70 -164 -86 -216 -58 -186 13 13 71 153 71 170 0 8 5 14 10 14 6 0 10 4 10 9 0 7 222 534 289 686 5 11 16 36 24 55 65 151 65 150 97 156 47 10 46 24 -3 24 l-44 0 -151 -354z"/> <path d="M2198 1894 c-5 -4 -8 -349 -8 -766 l0 -758 300 0 c293 0 300 0 300 20 0 21 -15 27 -25 10 -4 -7 -101 -10 -275 -10 l-268 1 -5 25 c-2 14 -3 219 0 457 4 456 -7 1034 -19 1021z"/> <path d="M817 1828 c-2 -7 1 -22 6 -33 6 -11 12 -25 13 -30 1 -6 91 -219 200 -473 l197 -462 198 0 c191 0 199 1 209 21 13 24 5 38 -12 21 -17 -17 -372 -17 -385 1 -5 6 -17 30 -26 52 -21 51 -225 531 -242 570 -8 17 -44 101 -80 188 -37 86 -69 157 -70 157 -2 0 -5 -6 -8 -12z"/> <path d="M2145 1000 c0 -294 1 -415 2 -267 2 147 2 387 0 535 -1 147 -2 26 -2 -268z"/> <path d="M2141 434 c0 -11 3 -14 6 -6 3 7 2 16 -1 19 -3 4 -6 -2 -5 -13z"/> <path d="M268 323 c7 -3 16 -2 19 1 4 3 -2 6 -13 5 -11 0 -14 -3 -6 -6z"/> </g> </svg> 